<?xml version="1.0" standalone="no"?>
<!DOCTYPE svg PUBLIC "-//W3C//DTD SVG 20010904//EN"
 "http://www.w3.org/TR/2001/REC-SVG-20010904/DTD/svg10.dtd">
<svg version="1.0" xmlns="http://www.w3.org/2000/svg"
 width="1188.000000pt" height="1188.000000pt" viewBox="0 0 1188.000000 1188.000000"
 preserveAspectRatio="xMidYMid meet">
<metadata>
Created by potrace 1.14, written by Peter Selinger 2001-2017
</metadata>
<g transform="translate(0.000000,1188.000000) scale(0.100000,-0.100000)"
fill="#000000" stroke="none">
<path d="M2317 11780 c-452 -509 -774 -1022 -1002 -1595 l-52 -130 -97 -5
c-71 -4 -99 -9 -106 -20 -10 -16 -21 -62 -80 -345 -70 -340 -81 -409 -82 -500
0 -188 63 -345 193 -477 l81 -81 -7 -141 c-3 -78 -7 -185 -9 -239 -2 -54 -6
-100 -8 -101 -1 -2 -53 -29 -115 -60 -126 -64 -222 -145 -296 -249 -73 -102
-112 -192 -169 -387 -12 -43 -17 -47 -93 -84 -115 -56 -235 -179 -299 -306
-50 -101 -90 -220 -106 -320 -13 -82 -13 -723 0 -813 14 -95 74 -273 126 -376
58 -114 163 -252 233 -307 64 -51 121 -72 209 -81 57 -5 63 -8 68 -32 3 -14
24 -72 46 -128 29 -75 38 -110 33 -130 -18 -77 -150 -385 -254 -598 -95 -193
-144 -279 -253 -440 -73 -110 -166 -243 -206 -295 l-72 -94 0 -133 c0 -73 2
-133 4 -133 3 0 18 17 33 39 15 21 55 72 88 112 221 272 545 774 733 1136 52
101 98 183 103 183 5 0 12 0 16 0 12 -1 4 -50 -48 -310 -89 -434 -206 -861
-319 -1160 -62 -164 -215 -515 -240 -549 -24 -35 -204 -175 -297 -232 l-73
-44 0 -475 0 -475 24 30 c68 83 246 438 387 769 63 148 68 156 169 286 171
219 481 744 598 1015 l22 50 -4 -55 c-6 -69 -101 -417 -168 -615 -58 -172
-244 -653 -317 -818 -27 -62 -68 -157 -92 -211 -23 -55 -56 -115 -72 -133 -16
-18 -106 -79 -201 -134 -94 -56 -210 -126 -258 -156 l-88 -55 0 -160 0 -159
30 21 c16 11 109 62 207 112 132 67 187 90 215 90 65 -1 239 -68 439 -167 245
-123 316 -169 362 -237 54 -82 74 -164 112 -463 8 -66 21 -165 29 -220 9 -55
15 -109 15 -120 0 -19 0 -19 -13 -2 -8 10 -12 27 -9 38 4 13 -2 25 -16 35 -16
12 -19 19 -12 33 7 13 4 20 -12 30 -15 10 -22 11 -25 2 -2 -6 -10 -11 -18 -11
-9 0 -13 -4 -9 -9 3 -5 0 -13 -6 -16 -7 -5 -3 -14 10 -26 23 -22 27 -39 9 -39
-6 0 -8 3 -5 7 10 10 -13 32 -27 27 -8 -3 -16 4 -19 16 -3 12 -10 19 -16 15
-15 -9 -14 8 2 25 6 8 2 6 -11 -5 l-22 -19 32 -32 c23 -22 35 -28 41 -21 4 7
5 -3 2 -20 -3 -20 -1 -33 5 -33 6 0 8 -5 4 -11 -3 -6 0 -15 7 -20 12 -8 12
-11 -1 -19 -24 -15 -27 -13 -40 34 -7 25 -21 53 -31 62 -11 9 -19 23 -19 31 0
22 -82 -36 -135 -94 l-47 -53 692 0 c553 0 690 3 682 13 -23 29 -47 222 -47
387 0 176 8 236 65 475 5 22 19 83 31 135 36 157 155 577 200 705 45 128 88
228 111 259 14 17 16 16 45 -20 87 -112 102 -212 103 -686 0 -328 -8 -419 -46
-538 -36 -114 -36 -114 -91 -51 -90 103 -184 140 -219 86 -9 -13 -18 -42 -21
-64 -10 -71 56 -173 157 -244 l25 -18 -31 -57 c-49 -91 -225 -351 -248 -367
-18 -13 45 -15 538 -15 l558 0 -6 27 c-33 164 -39 234 -33 438 4 153 12 237
26 310 12 55 21 114 22 130 0 29 1 29 15 -10 9 -22 49 -179 89 -350 41 -171
88 -356 104 -412 17 -56 31 -109 31 -118 0 -13 18 -15 110 -15 105 0 110 1
101 19 -14 25 -52 164 -47 169 3 2 17 -20 31 -49 15 -29 41 -72 59 -96 l31
-42 120 -1 c111 0 118 1 97 16 -29 20 -151 227 -197 334 -127 296 -221 604
-305 990 -17 80 -40 186 -51 236 l-20 91 26 96 c80 301 233 668 362 870 49 76
159 193 206 216 37 20 61 9 148 -64 l72 -60 -39 -5 c-80 -12 -110 -48 -222
-268 -102 -199 -120 -275 -85 -350 60 -133 625 -810 963 -1156 154 -158 190
-192 557 -523 l190 -172 6 -83 c4 -46 7 -102 7 -125 l0 -43 40 0 40 0 0 98 c0
153 0 152 163 293 522 454 856 804 1346 1413 243 301 256 329 215 466 -19 64
-109 247 -166 337 -51 80 -82 103 -143 103 -26 0 -45 4 -43 9 4 12 95 89 140
119 l39 25 43 -20 c63 -31 159 -124 216 -210 111 -166 241 -497 339 -860 l31
-112 -36 -158 c-129 -580 -146 -647 -240 -912 -74 -209 -217 -492 -287 -568
l-20 -23 110 0 111 0 35 52 c19 29 40 64 46 76 31 60 13 -27 -24 -110 -7 -17
2 -18 111 -18 l119 0 16 63 c8 34 58 231 109 437 64 258 95 369 101 355 4 -11
20 -78 36 -150 26 -119 28 -147 28 -330 0 -139 -5 -227 -16 -287 l-16 -88 561
1 c308 0 552 4 541 8 -29 12 -43 31 -142 191 -113 184 -143 236 -143 248 0 5
14 15 30 22 76 31 162 194 138 259 -5 16 -3 29 8 44 11 14 14 16 11 5 -7 -20
16 -31 32 -15 6 6 11 20 11 32 0 11 7 30 15 43 13 18 14 26 4 44 l-12 23 -13
-30 c-9 -23 -9 -32 -1 -38 8 -6 5 -7 -6 -3 -10 3 -23 6 -28 6 -16 0 -10 14 21
47 30 32 38 53 21 53 -5 0 -27 -21 -50 -47 -31 -36 -38 -49 -26 -51 8 -2 15
-8 15 -13 0 -6 -4 -8 -9 -5 -4 3 -16 -3 -26 -14 -10 -11 -25 -20 -34 -20 -30
0 -118 -59 -158 -104 -22 -25 -45 -46 -51 -46 -15 0 -68 134 -82 205 -33 177
-31 784 4 933 26 113 92 216 125 196 56 -34 185 -402 285 -809 105 -427 126
-549 133 -765 5 -161 -6 -253 -43 -377 l-6 -23 494 0 495 0 1 46 c1 25 6 64
11 87 5 23 17 110 26 192 52 465 83 552 237 656 80 55 389 210 515 259 166 65
160 66 360 -34 95 -48 195 -102 222 -121 l51 -34 0 157 0 157 -58 36 c-31 20
-106 67 -167 106 -60 38 -154 95 -207 126 -53 32 -108 72 -122 90 -13 17 -49
91 -79 162 -31 72 -76 175 -101 230 -52 116 -208 520 -273 710 -68 202 -178
594 -196 705 -5 29 0 24 26 -30 163 -335 199 -400 384 -695 120 -193 178 -276
258 -375 61 -75 75 -105 191 -380 77 -184 187 -405 269 -539 37 -61 69 -111
71 -111 2 0 4 215 4 478 l0 478 -39 22 c-82 46 -223 143 -267 184 -54 50 -56
54 -172 319 -200 459 -302 778 -420 1319 -85 388 -93 439 -67 442 6 1 42 -61
80 -138 158 -315 421 -720 747 -1152 l138 -182 0 135 0 134 -110 151 c-152
206 -271 390 -346 534 -119 229 -294 631 -325 748 -12 44 -11 53 26 163 43
127 35 120 137 129 78 6 159 51 242 134 124 122 200 257 260 459 53 176 59
247 53 647 -4 324 -6 358 -26 436 -48 181 -160 369 -276 461 -57 45 -136 92
-173 101 -15 4 -23 17 -28 44 -17 98 -115 317 -180 405 -80 110 -215 212 -341
260 -55 21 -63 28 -67 54 -3 17 -7 131 -9 255 l-5 225 77 80 c82 86 126 159
162 270 35 104 33 272 -4 460 -43 214 -116 537 -128 568 -11 26 -13 27 -98 27
-47 0 -91 4 -96 8 -6 4 -26 48 -44 97 -49 133 -150 349 -248 530 -201 374
-461 738 -806 1128 l-60 67 -446 0 -446 0 40 -27 c64 -43 311 -238 420 -332
179 -153 506 -495 666 -696 263 -330 580 -878 605 -1045 8 -53 -9 -148 -37
-202 -30 -58 -93 -114 -149 -133 -28 -9 -57 -15 -64 -12 -7 3 -41 61 -74 129
-34 67 -101 192 -151 276 -49 83 -87 152 -85 152 3 0 -6 12 -20 27 -14 15 -30
40 -37 55 -6 15 -16 28 -21 28 -5 0 -8 5 -6 12 2 6 -10 25 -27 43 -18 17 -65
71 -105 121 -377 463 -802 824 -1330 1129 -210 121 -250 142 -356 184 -55 22
-128 53 -164 69 -120 54 -478 164 -640 197 l-123 25 -981 0 c-945 0 -985 -1
-1086 -20 -125 -25 -154 -32 -285 -72 -278 -84 -656 -244 -845 -358 -30 -18
-68 -41 -85 -50 -16 -9 -75 -43 -129 -75 -280 -162 -734 -538 -976 -810 -58
-65 -115 -128 -127 -141 -13 -13 -23 -26 -23 -30 0 -3 -17 -27 -38 -53 -58
-69 -159 -212 -241 -340 -76 -118 -251 -449 -251 -474 0 -8 -7 -20 -15 -27
-20 -17 -106 13 -152 53 -86 76 -127 240 -88 358 23 71 108 247 184 383 34 60
61 112 61 116 0 3 8 15 18 26 10 10 25 29 34 42 15 22 16 22 21 3 3 -13 -3
-23 -17 -30 -29 -16 -73 -146 -55 -167 8 -10 8 -14 0 -14 -6 0 -10 -5 -9 -12
2 -7 -2 -12 -9 -13 -21 0 -24 -12 -6 -26 9 -8 14 -9 10 -3 -4 7 -1 14 7 17 8
3 17 -1 20 -9 3 -9 10 -12 16 -9 5 3 10 -1 10 -9 0 -9 3 -16 8 -16 4 0 12 -11
19 -25 7 -16 7 -25 1 -25 -6 0 -7 -7 -4 -16 3 -8 2 -13 -2 -10 -4 2 -7 -15 -7
-39 0 -24 3 -41 8 -38 4 2 7 -3 7 -12 0 -9 4 -14 9 -11 13 8 19 68 31 281 13
251 25 318 63 375 188 279 522 654 800 899 142 124 368 306 430 344 26 17 47
32 47 33 0 2 -199 4 -442 4 l-443 0 -88 -100z m-438 -1572 c0 -7 -4 -22 -8
-32 -10 -25 -22 -6 -14 22 6 23 23 31 22 10z m39 0 c-2 -6 -10 -13 -16 -14 -7
-1 -8 0 -2 3 5 2 8 9 4 14 -3 5 0 9 6 9 7 0 10 -5 8 -12z m7187 -893 c121 -87
183 -139 287 -242 129 -127 148 -165 148 -293 0 -108 -19 -198 -69 -323 -17
-43 -31 -82 -31 -86 0 -5 36 -51 80 -103 121 -140 167 -250 122 -292 -12 -10
-25 -15 -30 -12 -5 3 -28 37 -51 76 -39 66 -144 190 -161 190 -4 0 -28 -44
-54 -97 -54 -112 -143 -253 -160 -253 -22 0 -56 31 -56 52 0 11 16 47 36 79
39 65 128 251 137 287 6 24 5 25 -132 146 -154 136 -330 266 -361 266 -13 0
-210 -402 -210 -428 0 -24 61 -87 179 -185 47 -39 120 -101 161 -137 41 -36
121 -102 176 -147 141 -114 208 -211 158 -230 -30 -11 -65 14 -334 243 -69 58
-188 157 -266 220 -161 131 -189 169 -181 241 3 29 43 123 115 271 154 315
204 436 253 608 48 172 69 204 130 204 29 0 54 -12 114 -55z m-7928 -97 c-2
-18 -4 -6 -4 27 0 33 2 48 4 33 2 -15 2 -42 0 -60z m9530 20 c-2 -13 -4 -5 -4
17 -1 22 1 32 4 23 2 -10 2 -28 0 -40z m-9474 -175 c13 -21 43 -58 66 -83 22
-25 41 -49 41 -55 0 -20 -93 82 -116 128 -29 57 -26 61 9 10z m3316 -878 c15
-135 47 -346 67 -440 34 -155 64 -308 61 -311 -1 -2 -41 8 -87 22 -161 47
-320 73 -517 86 -147 9 -193 15 -193 25 0 19 147 333 258 553 115 226 291 544
346 625 l41 60 6 -255 c4 -140 12 -304 18 -365z m5102 528 c11 -46 10 -56 -3
-70 -28 -27 -38 -6 -38 80 1 73 2 80 15 63 8 -10 20 -43 26 -73z m-7982 -115
c-1 -51 -4 -132 -8 -179 l-6 -87 -99 -51 c-54 -28 -100 -51 -102 -51 -2 0 -4
101 -4 224 0 170 3 226 13 229 6 3 56 6 110 6 l97 1 -1 -92z m8754 28 c7 -67
0 -386 -8 -394 -5 -5 -163 83 -181 102 -7 7 -14 75 -17 178 -7 193 -18 176
114 175 l87 -1 5 -60z m-8574 -991 c11 -444 15 -551 45 -1260 30 -701 62
-1217 100 -1585 9 -80 18 -169 21 -197 l5 -53 -32 7 c-63 12 -77 21 -83 55 -3
18 -17 157 -31 308 -14 151 -30 318 -35 370 -5 52 -20 304 -34 560 -15 256
-30 537 -35 625 -18 306 -30 582 -40 910 -5 182 -12 402 -15 490 l-6 160 63
30 c35 17 64 30 65 30 1 0 6 -203 12 -450z m8262 419 c32 -14 60 -33 63 -41 7
-17 -7 -429 -34 -1038 -11 -242 -24 -548 -30 -680 -21 -486 -46 -864 -75
-1150 -8 -77 -19 -214 -25 -305 -6 -91 -13 -190 -16 -221 l-6 -57 -59 -9 -59
-10 0 31 c0 17 7 86 15 153 60 513 134 1961 152 2966 3 213 8 387 11 387 2 0
31 -12 63 -26z m-8461 -131 c1 -178 56 -1540 75 -1833 9 -129 20 -320 25 -425
5 -104 12 -210 15 -235 3 -25 10 -142 15 -260 6 -118 17 -285 25 -370 8 -85
15 -165 15 -177 l0 -21 -66 26 c-36 14 -69 33 -74 41 -4 9 -15 108 -24 221 -9
113 -23 282 -31 375 -18 208 -71 1202 -116 2200 -6 138 -14 286 -18 330 -3 44
-5 87 -3 95 3 15 126 89 150 90 8 0 12 -18 12 -57z m8727 -21 l22 -17 -19
-380 c-11 -209 -24 -470 -30 -580 -5 -110 -21 -445 -35 -745 -26 -579 -39
-793 -56 -930 -6 -47 -18 -194 -28 -328 -20 -275 -17 -267 -109 -302 -59 -23
-56 -29 -42 85 5 44 14 161 20 260 6 99 13 207 15 240 8 94 24 388 35 645 6
129 15 316 20 415 10 168 14 261 40 855 5 124 15 368 22 542 l12 317 55 -30
c31 -16 66 -37 78 -47z m-8944 -159 c13 -202 27 -498 37 -778 12 -319 55
-1174 79 -1560 4 -66 4 -133 0 -150 -4 -16 -7 -25 -8 -18 -1 12 -162 116 -169
109 -2 -2 4 -18 12 -35 9 -17 16 -33 16 -36 -2 -45 2 -75 8 -72 4 3 8 -6 8
-19 1 -13 -1 -24 -5 -24 -4 0 -8 -7 -8 -15 0 -8 7 -15 16 -15 10 0 12 -3 5 -8
-10 -7 -14 -142 -4 -142 3 0 12 6 20 13 8 6 6 2 -5 -11 -16 -19 -17 -28 -8
-52 6 -16 8 -31 4 -33 -3 -2 -1 -2 6 -1 6 2 14 -2 16 -9 2 -7 7 -9 11 -6 4 4
-1 14 -10 23 -9 9 -14 19 -11 22 7 8 37 -26 37 -42 0 -8 -7 -14 -17 -14 -18 0
-10 -13 11 -16 19 -3 15 64 -4 76 -13 9 -13 10 0 10 13 0 13 1 0 10 -9 6 -17
5 -23 -3 -6 -8 -7 -7 -4 3 2 8 10 14 16 12 6 -1 11 2 11 7 0 5 3 16 6 25 4 10
1 16 -10 16 -10 0 -13 5 -9 16 11 29 31 -11 27 -56 -1 -22 2 -40 7 -40 5 0 9
-7 9 -15 0 -8 5 -15 10 -15 7 0 7 -6 1 -18 -9 -17 2 -53 12 -42 7 7 10 47 7
95 -1 32 -3 36 -10 20 -7 -16 -9 -17 -9 -3 -1 9 3 19 8 23 10 6 9 65 -2 81 -3
6 -2 16 2 23 4 7 6 22 4 34 -2 12 3 42 10 67 l14 45 8 -115 c4 -63 13 -177 19
-253 6 -76 8 -141 4 -143 -4 -3 -28 12 -54 31 -26 20 -65 45 -86 56 -21 11
-43 30 -47 42 -5 12 -14 121 -20 242 -7 121 -14 236 -16 255 -15 113 -25 287
-25 435 0 94 -7 294 -15 445 -7 151 -19 412 -25 580 -12 340 -27 701 -37 860
l-6 105 50 18 c27 10 65 29 84 42 19 13 37 24 40 25 3 0 9 -48 12 -107z m9118
48 c31 -12 63 -29 72 -39 17 -19 17 -40 -13 -732 -5 -129 -14 -347 -20 -485
-13 -329 -19 -427 -31 -505 -5 -36 -11 -191 -13 -345 -1 -154 -6 -288 -10
-297 -4 -9 -48 -42 -97 -74 -49 -32 -89 -62 -89 -67 0 -5 8 -16 18 -23 15 -12
15 -15 2 -24 -13 -9 -13 -11 -1 -19 10 -6 14 -27 13 -63 0 -42 1 -48 8 -26 10
33 35 60 45 50 5 -4 3 2 -2 12 -8 14 -7 23 2 33 21 21 25 16 25 -29 0 -55 18
-38 21 20 2 23 6 42 11 42 4 0 5 7 2 15 -4 8 -2 15 3 15 5 0 10 14 11 32 4 49
12 47 12 -3 -1 -158 -21 -444 -32 -455 -7 -6 -33 -22 -58 -35 -25 -13 -65 -39
-88 -58 l-44 -34 6 54 c13 112 32 453 56 1014 6 132 15 332 20 445 5 113 14
306 20 430 6 124 14 304 20 400 5 96 14 306 20 465 6 160 13 301 16 314 5 21
6 22 22 8 9 -9 42 -25 73 -36z m-3928 -271 c37 -30 77 -59 87 -64 27 -12 25
-26 -2 -27 -20 0 -185 -53 -230 -73 -13 -6 -20 0 -33 31 -28 65 -85 272 -91
331 l-7 57 104 -100 c57 -55 135 -125 172 -155z m-5424 -173 c6 -172 16 -424
21 -562 5 -137 13 -346 16 -462 l7 -213 -170 0 -171 0 -6 93 c-28 409 -44
1074 -27 1162 25 135 121 274 239 345 l67 40 7 -46 c4 -25 11 -186 17 -357z
m9587 345 c95 -62 158 -135 207 -239 22 -47 22 -53 20 -442 -1 -349 -9 -560
-29 -823 l-6 -78 -164 0 -164 0 0 93 c0 50 5 198 10 327 5 129 17 397 25 595
8 198 15 412 15 476 0 108 3 129 20 129 4 0 33 -17 66 -38z m-6631 -298 c66
-9 156 -22 200 -30 44 -8 139 -24 210 -35 72 -12 135 -23 141 -25 7 -1 22 -33
34 -71 121 -371 366 -822 601 -1108 62 -76 301 -315 314 -315 9 0 0 11 -91
111 -211 231 -375 525 -522 934 -54 151 -96 312 -90 341 3 12 22 -17 55 -83
92 -183 266 -450 447 -683 92 -119 383 -416 496 -507 171 -137 332 -234 476
-289 102 -38 223 -65 277 -62 l51 3 -93 59 c-341 216 -679 600 -876 996 -45
90 -105 237 -105 258 0 3 19 -12 43 -35 101 -98 295 -239 455 -332 182 -106
417 -186 620 -211 60 -8 106 -19 108 -25 5 -12 -54 -140 -115 -250 -18 -33
-26 -51 -17 -40 84 106 109 135 118 135 14 0 4 -73 -23 -160 -30 -101 -22
-115 28 -44 23 32 69 86 103 119 l62 60 -9 -50 c-12 -74 -9 -369 6 -455 24
-149 44 -217 91 -315 99 -204 235 -305 437 -321 232 -18 428 106 533 338 35
79 75 243 91 372 29 244 -22 527 -121 666 -28 39 -26 42 23 20 23 -11 48 -20
54 -20 29 0 171 -89 228 -142 44 -41 70 -76 90 -119 26 -58 27 -67 20 -150 -9
-116 -47 -266 -85 -336 -16 -31 -30 -61 -30 -67 0 -31 240 238 293 329 15 26
30 45 33 42 8 -7 -31 -164 -60 -239 -32 -86 -143 -305 -197 -389 -67 -104
-147 -207 -215 -276 -35 -35 -64 -66 -64 -68 0 -8 62 18 147 62 48 25 130 76
181 115 52 38 95 68 97 66 9 -9 -104 -288 -164 -405 -44 -86 -159 -247 -242
-339 -111 -123 -221 -207 -351 -269 -59 -29 -84 -35 -135 -35 -75 0 -86 -20
-20 -37 122 -33 142 -36 210 -30 161 13 423 144 569 285 21 20 41 33 44 29 17
-16 -148 -427 -215 -536 -76 -125 -356 -416 -541 -562 -195 -154 -581 -410
-870 -576 -195 -112 -495 -257 -764 -369 -185 -78 -214 -75 -491 46 -442 192
-1034 539 -1447 848 -146 109 -373 322 -486 455 -124 146 -179 246 -277 496
-54 139 -70 191 -59 191 3 0 31 -23 62 -50 59 -53 216 -151 313 -194 76 -35
201 -66 265 -66 28 0 87 7 130 16 138 28 152 50 37 56 -62 3 -92 10 -145 35
-236 111 -481 379 -629 688 -52 109 -119 286 -119 314 0 6 33 -13 73 -44 107
-80 348 -207 364 -191 3 3 -24 35 -59 73 -199 213 -382 509 -456 738 -54 165
-52 224 3 115 13 -26 51 -81 84 -121 70 -87 197 -213 186 -184 -68 173 -101
333 -92 445 13 160 129 273 372 365 36 13 65 22 65 19 0 -3 -9 -18 -20 -34
-30 -43 -77 -166 -95 -255 -21 -101 -21 -357 0 -477 46 -266 140 -454 280
-560 142 -108 372 -116 534 -20 203 119 306 340 327 697 7 103 -9 304 -27 353
-7 19 16 1 79 -63 49 -49 96 -101 105 -114 9 -14 19 -22 22 -19 5 4 -36 185
-61 271 -11 38 19 13 88 -73 39 -49 73 -88 75 -86 2 2 -27 57 -66 122 -38 66
-91 157 -118 203 -124 216 -363 384 -648 458 -103 26 -123 28 -305 28 -193 -1
-259 -8 -358 -42 -24 -8 -46 -12 -48 -10 -9 9 158 492 212 616 l24 54 108 -7
c59 -4 161 -14 227 -22z m-1650 -323 c27 -349 94 -759 181 -1106 61 -246 94
-357 175 -589 98 -280 79 -288 -37 -16 -165 389 -279 887 -328 1435 -19 203
-29 525 -19 551 6 13 9 3 11 -31 1 -27 9 -137 17 -244z m4416 212 c320 -219
464 -308 618 -384 93 -46 170 -87 170 -90 1 -4 -20 -10 -46 -14 -142 -21 -388
-129 -517 -227 -38 -29 -75 -57 -82 -63 -9 -7 -21 -2 -42 18 -15 15 -33 27
-40 27 -20 0 -141 120 -210 209 -91 118 -178 264 -236 399 -27 62 -47 114 -45
116 6 6 288 44 335 45 33 1 54 -7 95 -36z m-6377 -370 c3 -49 13 -248 21 -443
23 -558 36 -842 39 -882 6 -53 -14 -49 -78 15 -96 96 -168 243 -182 370 -7 62
-7 62 13 42 11 -11 16 -23 10 -26 -5 -4 -4 -9 3 -14 6 -4 9 -13 6 -21 -3 -8 0
-17 8 -20 7 -3 13 -11 13 -19 0 -8 -4 -12 -9 -9 -4 3 -8 0 -8 -5 0 -6 4 -11 9
-11 5 0 12 -14 16 -31 6 -27 8 -28 19 -13 10 13 15 14 21 4 6 -9 9 -9 15 0 5
9 9 8 13 -2 6 -16 -24 -21 -34 -6 -3 5 -9 0 -12 -12 -5 -18 -2 -21 14 -17 11
3 16 1 13 -5 -3 -5 4 -20 17 -34 12 -13 19 -27 16 -31 -4 -3 -7 -1 -7 5 0 7
-4 12 -10 12 -5 0 -10 -7 -10 -15 0 -8 7 -15 16 -15 8 0 12 -5 9 -11 -4 -6 2
-19 14 -30 12 -11 21 -24 21 -30 0 -6 5 -7 10 -4 6 3 10 -3 10 -15 0 -12 4
-19 9 -16 5 4 11 1 13 -6 3 -7 7 -5 11 6 4 9 3 15 -2 11 -6 -3 -8 7 -6 22 2
16 4 32 4 36 1 5 5 6 10 2 5 -3 3 7 -5 23 -18 36 -27 178 -13 205 8 14 8 18 0
13 -6 -4 -11 -1 -12 6 0 7 -4 4 -8 -7 -7 -18 -8 -17 -14 7 -4 15 -16 30 -27
33 -11 3 -20 11 -20 16 0 10 40 -10 53 -26 4 -6 10 -5 16 4 13 20 -13 44 -49
45 -15 1 -26 4 -25 7 2 3 -30 29 -71 59 -62 44 -76 59 -85 93 -7 25 -9 125 -7
271 4 254 8 274 74 386 34 58 129 170 144 170 4 0 11 -39 14 -87z m10848 49
c49 -55 115 -154 146 -220 27 -56 27 -61 30 -301 4 -300 6 -295 -109 -365
-114 -69 -143 -94 -127 -113 12 -15 12 -78 0 -98 -4 -5 -7 -21 -8 -35 -6 -109
-9 -132 -15 -136 -5 -3 -4 -15 1 -29 6 -17 5 -27 -6 -35 -15 -13 -19 -30 -6
-30 15 0 62 48 62 63 0 9 9 19 20 22 11 4 18 11 15 16 -4 5 -2 9 4 9 6 0 8 7
5 15 -4 8 -1 15 6 15 7 0 10 7 6 16 -3 8 -2 12 4 9 12 -7 33 32 24 46 -4 8 -9
7 -15 -2 -7 -11 -9 -10 -9 4 0 11 8 17 23 18 21 0 21 1 2 9 -11 4 -31 6 -44 3
-17 -4 -22 -2 -17 6 4 6 13 8 19 5 9 -5 9 -4 1 5 -7 8 -8 27 -3 54 9 52 3 59
-22 28 -19 -23 -19 -23 -19 -2 0 12 5 21 10 21 6 0 10 7 10 15 0 8 5 15 10 15
6 0 20 11 32 25 12 14 28 23 34 21 7 -3 15 2 18 10 3 8 14 14 24 14 10 0 23 5
30 12 14 14 14 12 12 -61 -2 -76 -45 -215 -87 -284 -38 -62 -115 -147 -152
-167 l-23 -12 6 104 c3 56 8 171 11 253 3 83 12 292 20 465 8 173 15 386 15
473 0 177 3 184 62 119z m-11041 -896 c14 -15 11 -26 -6 -26 -11 0 -15 10 -14
38 1 21 3 28 6 17 3 -11 9 -24 14 -29z m185 -253 c1 -13 -3 -23 -9 -23 -6 0
-7 3 -4 6 3 4 2 14 -3 24 -6 11 -5 17 3 17 7 0 13 -11 13 -24z m10401 -219
c-2 -3 -15 -7 -28 -9 -12 -3 -39 -19 -58 -38 -20 -18 -69 -54 -109 -81 -73
-49 -92 -77 -76 -113 4 -10 6 -21 6 -25 -1 -5 5 -8 13 -8 10 0 15 10 15 30 0
29 2 30 23 19 l22 -12 -19 22 c-20 22 -20 22 0 15 16 -7 17 -5 7 7 -10 12 -6
17 20 29 17 7 26 15 19 18 -18 6 5 32 28 32 10 0 20 6 22 12 3 7 11 13 19 14
43 3 48 5 44 17 -2 6 7 20 20 30 l25 18 0 -49 c0 -109 -52 -307 -107 -408 -36
-65 -206 -254 -218 -242 -3 3 2 104 10 224 9 120 18 285 22 366 l6 147 146 3
c129 3 165 -2 148 -18z m-9693 -39 c3 -27 6 -93 6 -145 0 -52 7 -194 14 -315
8 -121 13 -222 10 -224 -8 -9 -172 170 -202 221 -57 96 -110 287 -129 459 l-5
55 150 0 150 -1 6 -50z m6876 12 c0 -16 -18 3 -23 25 -6 22 -5 22 8 4 8 -11
15 -24 15 -29z m-3837 -214 c-7 -2 -21 -2 -30 0 -10 3 -4 5 12 5 17 0 24 -2
18 -5z m6147 -113 c0 -5 -5 -10 -11 -10 -5 0 -7 5 -4 10 3 6 8 10 11 10 2 0 4
-4 4 -10z m-20 -40 c-6 -11 -13 -20 -16 -20 -2 0 0 9 6 20 6 11 13 20 16 20 2
0 0 -9 -6 -20z m-5781 -29 c-12 -17 -49 -46 -49 -36 0 4 53 55 57 55 2 0 -2
-8 -8 -19z m3351 0 c0 -5 -17 -21 -37 -36 l-38 -28 34 36 c37 39 41 42 41 28z
m-6483 -63 c-3 -8 -6 -5 -6 6 -1 11 2 17 5 13 3 -3 4 -12 1 -19z m6383 -16 c0
-4 -10 -13 -22 -21 -23 -14 -23 -14 -4 8 20 22 26 25 26 13z m-71 -47 c-54
-29 -195 -50 -249 -36 -29 7 -19 9 55 11 57 1 110 8 145 20 67 22 84 24 49 5z
m-3501 -40 c9 -9 -82 -4 -103 5 -13 6 -1 8 39 5 33 -3 61 -7 64 -10z m-1393
-1067 c94 -284 208 -551 330 -777 36 -65 65 -124 65 -130 0 -29 -25 0 -108
127 -147 223 -246 434 -311 657 -27 95 -69 315 -76 400 l-5 70 29 -102 c16
-56 50 -166 76 -245z m6111 175 c-24 -250 -127 -570 -257 -806 -57 -102 -186
-287 -200 -287 -16 0 -9 21 30 88 111 192 220 447 321 749 43 131 83 257 90
281 16 62 24 51 16 -25z m-5151 -1625 c-64 -120 -196 -471 -210 -558 -4 -25
-10 -49 -13 -55 -5 -7 -85 364 -95 439 -1 14 9 23 43 35 50 18 99 63 148 134
35 52 50 61 116 65 l44 2 -33 -62z m4222 40 c7 -5 25 -33 42 -62 36 -65 90
-113 136 -122 45 -8 45 -12 -5 -237 -22 -98 -40 -187 -40 -198 0 -41 -19 -16
-30 39 -24 129 -82 287 -206 569 l-14 32 53 -6 c28 -3 57 -10 64 -15z m-5901
-545 c-37 -73 -81 -288 -97 -473 -20 -231 -1 -829 37 -1159 8 -73 13 -136 10
-139 -25 -24 -465 423 -670 682 -62 77 -130 156 -151 175 -64 56 -665 341
-720 341 -8 0 -15 5 -15 11 0 30 205 249 265 284 40 24 217 70 450 119 315 66
387 81 620 131 302 65 290 63 271 28z m7758 -28 c143 -30 385 -79 536 -110
471 -96 501 -107 624 -224 124 -119 182 -211 134 -211 -32 0 -191 -69 -416
-182 -269 -133 -297 -154 -404 -299 -30 -41 -109 -134 -174 -205 -184 -200
-516 -527 -523 -515 -4 6 -2 68 5 138 31 337 39 511 39 828 0 278 -4 362 -19
458 -15 101 -54 273 -81 355 -5 15 -3 22 5 22 7 0 130 -25 274 -55z m-6563
-385 c12 -52 33 -140 46 -195 32 -130 45 -208 35 -215 -5 -3 -28 -32 -53 -64
l-44 -60 -7 160 c-7 172 -25 454 -33 531 l-5 48 19 -55 c11 -30 30 -98 42
-150z m5135 108 c-12 -125 -35 -500 -36 -572 0 -69 0 -69 -20 -51 -35 32 -80
107 -80 134 0 31 130 561 137 561 3 0 3 -33 -1 -72z m-3390 -304 c100 -58 548
-279 675 -333 53 -23 108 -41 122 -41 37 0 124 34 317 125 219 102 420 205
500 254 36 21 67 37 69 35 2 -2 -63 -73 -145 -156 -82 -84 -263 -273 -401
-419 -224 -237 -318 -329 -336 -329 -7 0 -362 361 -536 545 -63 66 -168 175
-234 243 -66 67 -118 122 -115 122 2 0 40 -21 84 -46z m4224 -553 c0 -5 -7
-11 -14 -14 -10 -4 -13 -1 -9 9 6 15 23 19 23 5z m-45 -31 c3 -5 1 -10 -4 -10
-6 0 -11 5 -11 10 0 6 2 10 4 10 3 0 8 -4 11 -10z m65 -14 c0 -3 -4 -8 -10
-11 -5 -3 -10 -1 -10 4 0 6 5 11 10 11 6 0 10 -2 10 -4z m-7961 -753 c0 -10
-3 -13 -5 -6 -3 7 -13 9 -22 6 -15 -4 -15 -3 -2 6 22 15 30 14 29 -6z"/>
<path d="M8992 9247 c-5 -7 -22 -55 -36 -108 -14 -53 -42 -140 -61 -193 -19
-53 -35 -103 -35 -111 0 -7 35 -38 78 -68 107 -75 191 -143 304 -248 97 -90
97 -90 112 -67 43 65 115 351 102 403 -14 54 -316 334 -417 386 -29 14 -39 16
-47 6z"/>
<path d="M1695 5190 c-4 -6 2 -10 12 -10 10 0 14 -4 8 -8 -5 -4 -11 -15 -11
-24 -1 -14 2 -15 16 -8 9 5 20 6 24 3 3 -3 6 3 6 14 0 22 -45 49 -55 33z"/>
<path d="M10453 5004 c-15 -16 -16 -24 -4 -24 8 0 24 30 19 35 -2 2 -9 -3 -15
-11z"/>
<path d="M4500 6838 c113 -46 254 -125 308 -173 86 -75 93 -72 25 12 -18 23
-60 59 -93 81 -62 42 -196 93 -240 91 l-25 0 25 -11z"/>
<path d="M5786 3367 c-77 -43 -48 -64 38 -27 26 11 46 26 46 35 0 22 -38 19
-84 -8z"/>
<path d="M6010 3375 c0 -26 98 -74 121 -59 17 10 -11 42 -51 58 -50 20 -70 20
-70 1z"/>
<path d="M7270 6824 c-133 -40 -279 -127 -311 -186 -12 -22 -17 -25 71 33 80
53 204 113 288 140 39 12 72 27 72 31 0 13 -30 8 -120 -18z"/>
<path d="M437 5780 c3 -11 9 -17 15 -14 5 3 4 12 -3 20 -16 19 -18 18 -12 -6z"/>
<path d="M11460 5991 c0 -8 -7 -10 -20 -6 -14 5 -20 2 -20 -9 0 -9 4 -16 10
-16 5 0 7 -8 4 -17 -4 -10 4 -3 15 16 12 18 20 36 17 39 -4 3 -6 0 -6 -7z"/>
<path d="M11460 5951 c0 -5 7 -11 14 -14 10 -4 13 -1 9 9 -6 15 -23 19 -23 5z"/>
<path d="M11420 5900 c0 -11 5 -20 10 -20 6 0 10 9 10 20 0 11 -4 20 -10 20
-5 0 -10 -9 -10 -20z"/>
<path d="M11461 5864 c0 -11 3 -14 6 -6 3 7 2 16 -1 19 -3 4 -6 -2 -5 -13z"/>
<path d="M11428 5863 c7 -3 16 -2 19 1 4 3 -2 6 -13 5 -11 0 -14 -3 -6 -6z"/>
<path d="M10780 5276 c7 -7 13 -7 20 0 6 6 3 10 -10 10 -13 0 -16 -4 -10 -10z"/>
<path d="M10737 5213 c-3 -16 0 -31 6 -35 14 -9 16 -50 2 -60 -6 -5 -6 -8 1
-8 6 0 17 7 24 15 9 11 9 15 1 15 -7 0 -9 5 -6 10 3 6 3 16 -2 23 -4 6 -8 22
-9 35 -2 34 -11 36 -17 5z"/>
<path d="M10790 5220 c8 -5 20 -10 25 -10 6 0 3 5 -5 10 -8 5 -19 10 -25 10
-5 0 -3 -5 5 -10z"/>
<path d="M10664 5065 c0 -30 3 -55 6 -55 3 0 6 25 7 55 0 30 -2 55 -6 55 -3 0
-7 -25 -7 -55z"/>
<path d="M10740 5065 c0 -8 2 -15 4 -15 2 0 6 7 10 15 3 8 1 15 -4 15 -6 0
-10 -7 -10 -15z"/>
<path d="M10700 5036 c0 -14 4 -26 9 -26 5 0 7 10 4 23 -4 18 -3 19 7 7 9 -12
11 -12 8 -1 -7 26 -28 24 -28 -3z"/>
<path d="M964 5563 c2 -16 9 -42 14 -58 5 -17 6 -40 1 -52 -4 -12 -4 -25 1
-28 4 -3 11 -28 15 -55 4 -28 11 -50 16 -50 5 0 9 -11 9 -25 0 -14 5 -25 10
-25 6 0 10 -11 10 -25 0 -14 7 -28 16 -32 9 -3 14 -13 11 -24 -7 -27 7 -23 23
6 7 13 17 22 22 19 14 -9 9 -24 -9 -24 -14 0 -15 -2 -4 -9 11 -7 10 -11 -5
-20 -13 -9 -15 -14 -6 -17 6 -3 12 -12 12 -20 0 -8 5 -14 10 -14 14 0 12 27
-2 33 -10 4 -10 8 1 15 22 15 24 55 5 69 -10 7 -15 16 -11 19 4 4 1 14 -6 23
-11 14 -10 14 6 2 9 -7 17 -20 17 -28 0 -7 7 -16 15 -19 8 -4 12 -10 9 -15 -3
-5 0 -9 7 -9 10 0 10 -3 2 -11 -6 -6 -9 -18 -6 -26 3 -7 1 -13 -5 -11 -10 3
-12 -1 -12 -23 0 -21 30 21 36 50 4 17 13 31 20 31 8 0 14 6 15 13 0 6 2 38 3
70 2 32 -1 57 -6 57 -6 0 0 8 12 18 29 24 20 55 -22 73 -17 7 -53 31 -81 53
-96 78 -121 96 -134 96 -10 0 -13 -8 -9 -27z m221 -163 c3 -5 -1 -10 -9 -10
-8 0 -18 5 -21 10 -3 6 1 10 9 10 8 0 18 -4 21 -10z m-15 -69 c13 -25 14 -112
1 -92 -5 8 -7 20 -4 27 7 19 -16 56 -32 51 -9 -4 -11 1 -8 14 7 25 29 24 43 0z
m-80 -108 c0 -23 -25 -9 -26 15 -1 18 2 20 12 11 8 -6 14 -18 14 -26z"/>
<path d="M1176 5173 c-6 -14 -5 -15 5 -6 7 7 10 15 7 18 -3 3 -9 -2 -12 -12z"/>
<path d="M1161 5117 c7 -7 22 -14 33 -14 19 -2 18 0 -4 12 -32 18 -44 19 -29
2z"/>
<path d="M1120 5100 c-13 -9 -13 -10 0 -10 8 0 22 5 30 10 13 9 13 10 0 10 -8
0 -22 -5 -30 -10z"/>
<path d="M1130 5080 c-12 -8 -11 -10 7 -10 12 0 24 -6 26 -12 4 -10 6 -10 6 0
1 7 5 11 9 8 5 -3 9 1 9 9 0 10 -4 12 -12 5 -7 -6 -15 -6 -21 0 -6 6 -15 6
-24 0z"/>
<path d="M8651 11148 c14 -13 77 -63 140 -112 63 -50 155 -127 204 -171 50
-45 108 -97 130 -116 38 -33 273 -270 430 -434 44 -46 81 -82 83 -80 2 2 20
-17 40 -43 19 -26 38 -49 42 -52 3 -3 30 -36 58 -75 28 -38 55 -74 59 -80 5
-5 21 -29 37 -52 28 -42 46 -54 46 -33 0 6 8 10 18 8 10 -2 16 2 14 11 -2 11
0 12 10 3 11 -8 14 -7 15 6 10 121 9 144 -3 167 -7 14 -9 23 -5 20 5 -3 12 2
15 11 4 10 2 13 -7 8 -6 -4 -9 -4 -5 0 3 4 2 21 -3 38 -9 32 4 63 22 52 5 -3
9 -1 9 5 0 6 -9 15 -20 21 -13 7 -20 21 -20 40 0 19 -7 33 -20 40 -14 7 -20 7
-20 0 0 -5 8 -10 18 -10 16 -1 16 -1 0 -10 -9 -6 -15 -18 -14 -28 2 -9 7 -95
11 -189 5 -121 4 -173 -3 -173 -6 0 -24 16 -39 36 -101 130 -165 208 -222 270
-36 39 -122 134 -191 210 -143 159 -354 360 -485 463 -49 39 -117 93 -150 119
-105 84 -253 183 -194 130z"/>
<path d="M2619 10657 c-25 -23 -52 -51 -60 -62 -13 -18 -12 -18 16 2 29 20 55
47 84 86 21 27 10 20 -40 -26z"/>
<path d="M2512 10557 c-26 -27 -28 -39 -7 -31 8 4 13 10 10 14 -3 5 3 13 12
19 10 5 15 12 12 15 -3 3 -15 -4 -27 -17z"/>
<path d="M2434 10478 l-19 -23 23 19 c12 11 22 21 22 23 0 8 -8 2 -26 -19z"/>
<path d="M9932 10435 c6 -14 15 -25 20 -25 4 0 7 -5 6 -11 -2 -6 4 -14 12 -16
13 -4 13 -3 0 6 -8 6 -12 11 -7 11 11 0 -22 60 -33 60 -6 0 -5 -10 2 -25z"/>
<path d="M2283 10317 c-83 -88 -298 -353 -310 -383 -3 -8 1 -14 10 -14 9 0 18
8 21 18 3 10 24 38 46 62 22 25 61 74 85 110 25 36 81 106 125 155 148 167
160 195 23 52z"/>
<path d="M9935 10360 c-3 -5 1 -10 9 -10 9 0 16 5 16 10 0 6 -4 10 -9 10 -6 0
-13 -4 -16 -10z"/>
<path d="M9985 10318 c4 -13 7 -33 7 -45 0 -12 8 -23 19 -26 23 -6 24 2 3 31
-8 12 -12 27 -8 34 5 7 3 8 -6 3 -10 -6 -12 -4 -7 8 4 10 2 17 -4 17 -7 0 -9
-9 -4 -22z"/>
<path d="M10020 10211 c-9 -18 -7 -20 20 -19 17 1 30 5 30 10 0 5 -4 6 -10 3
-5 -3 -10 1 -10 9 0 22 -17 20 -30 -3z"/>
<path d="M9980 10182 c0 -4 5 -14 10 -22 9 -13 11 -13 20 0 8 13 10 12 11 -5
1 -11 1 -25 0 -32 -1 -7 7 -9 20 -6 11 3 17 9 12 12 -4 3 -13 15 -18 25 -11
19 -55 42 -55 28z"/>
<path d="M10080 10160 c0 -5 5 -10 11 -10 5 0 7 5 4 10 -3 6 -8 10 -11 10 -2
0 -4 -4 -4 -10z"/>
<path d="M1817 10117 c-3 -8 1 -14 8 -14 7 0 11 6 8 14 -3 7 -6 13 -8 13 -2 0
-5 -6 -8 -13z"/>
<path d="M1846 10094 c-9 -24 -7 -27 9 -10 17 17 19 26 6 26 -5 0 -12 -7 -15
-16z"/>
<path d="M9991 10084 c0 -11 3 -14 6 -6 3 7 2 16 -1 19 -3 4 -6 -2 -5 -13z"/>
<path d="M10017 10080 c-3 -11 -2 -22 2 -24 4 -3 8 6 9 20 2 29 -4 31 -11 4z"/>
<path d="M1767 10063 c4 -11 3 -14 -5 -9 -7 4 -12 1 -12 -8 0 -23 15 -27 32
-7 14 16 13 19 -3 29 -15 10 -17 9 -12 -5z"/>
<path d="M10049 10063 c14 -28 17 -28 25 -6 4 10 4 14 0 10 -4 -4 -14 -1 -22
6 -13 10 -14 9 -3 -10z"/>
<path d="M1802 10035 c-11 -12 -10 -15 3 -15 8 0 15 7 15 15 0 18 -2 18 -18 0z"/>
<path d="M1836 10037 c3 -10 9 -15 12 -12 3 3 0 11 -7 18 -10 9 -11 8 -5 -6z"/>
<path d="M10060 10026 c0 -2 7 -7 16 -10 8 -3 12 -2 9 4 -6 10 -25 14 -25 6z"/>
<path d="M10135 10020 c-3 -5 -1 -10 4 -10 6 0 11 5 11 10 0 6 -2 10 -4 10 -3
0 -8 -4 -11 -10z"/>
<path d="M10106 9994 c-3 -9 -6 -25 -7 -37 l0 -22 -9 23 c-5 12 -12 22 -15 22
-4 0 -3 -4 0 -10 10 -17 -7 -11 -20 7 -14 18 -45 27 -45 12 0 -6 8 -9 18 -7
23 4 20 -48 -5 -69 -10 -8 -12 -11 -4 -7 11 5 12 1 7 -20 -4 -16 -2 -26 5 -26
6 0 3 -7 -6 -17 -16 -15 -18 -14 -40 13 -13 16 -21 31 -19 34 3 2 9 -2 14 -10
5 -8 12 -11 16 -7 4 4 3 12 -3 18 -14 14 -47 4 -38 -11 3 -5 1 -10 -4 -10 -6
0 -11 -7 -11 -15 0 -8 5 -15 12 -15 7 0 5 -7 -5 -18 -15 -17 -15 -18 6 -19 15
-2 18 0 8 6 -10 6 -10 10 -2 16 9 5 9 10 0 21 -20 24 3 15 27 -11 23 -25 19
-36 -4 -13 -15 15 -16 -3 -2 -20 6 -6 7 -10 4 -8 -3 3 -18 0 -33 -5 -28 -10
-39 -39 -15 -39 8 0 11 7 7 18 -4 11 1 9 17 -8 22 -24 22 -24 16 -2 -6 19 -4
22 17 22 33 0 38 -9 18 -29 -19 -19 -55 -36 -46 -22 3 5 1 12 -5 16 -6 3 -13
-2 -17 -11 -4 -10 -2 -19 5 -22 7 -2 12 -12 12 -23 0 -10 7 -19 15 -19 8 0 15
-5 15 -11 0 -6 7 -9 15 -6 11 5 12 1 5 -17 -10 -27 -4 -37 30 -53 l25 -12 -23
-7 c-18 -5 -20 -9 -11 -20 6 -8 17 -14 23 -14 6 0 4 5 -4 10 -8 5 -10 10 -4
10 18 0 24 -13 13 -27 -20 -23 12 -15 39 10 22 20 24 20 14 2 -9 -18 -7 -20
29 -22 22 -2 38 1 35 6 -3 4 -17 7 -32 5 -19 -2 -24 1 -20 12 20 50 20 50 4
36 -13 -10 -17 -10 -22 4 -8 22 -8 26 4 19 15 -9 12 -2 -12 31 -23 29 -48 42
-48 24 0 -5 4 -10 9 -10 5 0 7 -9 4 -20 -3 -12 0 -20 6 -20 7 0 10 4 6 9 -3 5
-1 12 5 16 6 3 9 -4 8 -18 -2 -19 -7 -23 -25 -19 -12 2 -21 9 -20 16 1 6 -4
10 -10 9 -7 -2 -13 4 -13 13 0 8 5 12 10 9 6 -3 10 4 10 15 0 16 4 20 15 16 9
-3 18 1 22 9 7 21 33 0 33 -26 0 -25 37 -62 46 -47 5 7 11 5 20 -6 9 -13 14
-14 20 -5 4 7 0 17 -10 24 -15 12 -15 13 1 20 22 10 46 7 54 -7 4 -7 9 -6 13
1 4 6 2 11 -4 11 -6 0 -8 4 -5 10 3 5 0 7 -9 4 -11 -4 -14 0 -13 15 1 12 7 19
13 17 8 -3 11 2 9 14 -2 10 3 26 10 37 20 25 18 38 -2 22 -17 -13 -17 -13 0 7
20 24 23 54 5 54 -10 0 -10 2 0 9 11 7 10 10 -3 15 -9 3 -15 12 -13 18 5 15
-15 38 -34 38 -11 0 -11 2 0 9 10 6 10 10 -3 21 -8 7 -15 22 -16 34 -1 19 -2
18 -9 -4 -4 -14 -8 -21 -9 -16 -1 5 -8 3 -16 -4 -12 -10 -14 -8 -10 12 4 23 4
23 -11 3 -14 -19 -15 -18 -9 12 5 33 -9 54 -19 27z m74 -68 c0 -3 -4 -8 -10
-11 -5 -3 -10 -1 -10 4 0 6 5 11 10 11 6 0 10 -2 10 -4z m-111 -47 c0 8 4 12
7 8 3 -3 -4 -19 -15 -36 -12 -17 -21 -37 -19 -45 2 -8 -1 -15 -7 -16 -17 -1
-17 36 0 50 17 14 21 45 3 34 -7 -5 -8 -3 -2 7 5 8 9 17 10 22 4 21 7 19 14
-8 4 -16 8 -24 9 -16z m16 -59 c3 -5 1 -10 -4 -10 -6 0 -11 5 -11 10 0 6 2 10
4 10 3 0 8 -4 11 -10z m-5 -60 c0 -5 -7 -7 -15 -4 -8 4 -15 8 -15 10 0 2 7 4
15 4 8 0 15 -4 15 -10z m-40 -59 c0 -11 -4 -9 -16 5 -8 10 -13 14 -10 7 4 -6
2 -14 -2 -17 -8 -5 -9 8 -3 48 2 14 30 -26 31 -43z m136 -25 c-9 18 21 25 34
9 10 -12 6 -18 -19 -32 -17 -10 -31 -24 -31 -30 0 -7 -4 -13 -8 -13 -15 0 -22
12 -14 24 4 6 8 22 8 36 3 36 2 36 20 14 8 -10 13 -14 10 -8z m-46 -16 c0 -11
-2 -20 -4 -20 -2 0 -6 9 -9 20 -3 11 -1 20 4 20 5 0 9 -9 9 -20z m-40 -111 c0
-6 -4 -7 -10 -4 -5 3 -10 11 -10 16 0 6 5 7 10 4 6 -3 10 -11 10 -16z"/>
<path d="M1740 9992 c0 -14 35 -28 64 -27 25 2 27 0 13 -10 -18 -13 -24 -31
-8 -21 5 4 12 0 14 -6 4 -10 6 -10 6 0 1 10 6 10 24 1 19 -11 21 -11 9 3 -9
11 -10 18 -2 23 5 3 10 11 10 18 0 6 -6 2 -14 -8 -13 -18 -14 -18 -20 3 -4 12
-12 20 -17 17 -5 -4 -9 -1 -9 5 0 7 -7 5 -16 -4 -16 -16 -39 -12 -29 5 4 5 -1
9 -9 9 -9 0 -16 -3 -16 -8z"/>
<path d="M1697 9954 c2 -7 0 -15 -6 -19 -6 -3 -11 -15 -11 -26 0 -11 -9 -29
-20 -41 -10 -12 -17 -25 -14 -29 3 -5 -2 -6 -10 -3 -13 5 -16 -2 -18 -32 -1
-35 1 -115 3 -154 1 -8 15 -32 31 -52 16 -21 24 -38 18 -38 -6 0 -8 -5 -5 -10
4 -6 10 -8 15 -5 4 3 6 -4 3 -15 -5 -18 9 -26 39 -21 4 0 5 -6 2 -13 -6 -15
29 -32 45 -22 5 3 12 -2 15 -11 11 -26 57 23 53 56 -2 14 2 32 9 39 7 7 11 21
9 32 -2 12 2 20 10 20 7 0 12 8 11 17 -2 10 3 24 11 31 8 8 11 17 8 20 -3 3
-12 -4 -21 -16 -15 -22 -41 -32 -28 -11 4 7 1 10 -7 7 -8 -3 -16 -15 -17 -28
-3 -21 -2 -22 11 -11 13 10 15 9 10 -9 -4 -16 -9 -18 -19 -9 -7 6 -18 8 -23 5
-5 -4 -13 -2 -16 4 -4 6 -1 9 7 8 8 -2 13 6 12 20 -1 12 1 20 4 17 9 -9 32 17
32 36 0 11 5 19 11 19 8 0 8 4 0 14 -8 10 -9 16 -1 21 6 3 8 11 4 16 -7 12
-34 -8 -34 -26 0 -14 -25 -14 -37 0 -4 4 -2 5 5 1 6 -4 13 -2 13 3 3 26 4 30
12 37 4 4 7 1 7 -6 0 -7 3 -10 7 -6 13 13 9 93 -5 93 -8 0 -10 -8 -6 -20 5
-17 4 -18 -9 -6 -13 12 -13 16 0 31 11 12 11 18 2 24 -8 5 -10 3 -4 -6 5 -9 4
-11 -4 -6 -9 6 -9 11 0 22 6 8 9 18 5 22 -4 4 -12 -1 -17 -10 -5 -10 -16 -15
-24 -12 -8 4 -15 1 -15 -5 0 -6 -6 -11 -14 -11 -8 0 -16 -10 -19 -22 -3 -22
-4 -22 -12 -4 -6 13 -5 21 3 24 7 2 12 10 12 18 0 8 6 17 14 20 7 3 13 15 12
26 -1 16 -8 22 -27 22 -17 1 -25 -3 -22 -10z m25 -14 c-12 -11 -25 -20 -29
-20 -9 1 36 40 45 40 3 0 -4 -9 -16 -20z m70 -125 c-3 -5 -7 -4 -10 3 -2 7 -7
10 -11 8 -4 -3 -7 4 -8 14 -2 18 -1 18 16 2 10 -9 15 -21 13 -27z m-87 -8
c-11 -9 -15 -19 -10 -28 6 -10 5 -11 -4 -3 -15 14 -4 44 17 44 13 0 13 -2 -3
-13z m65 -161 c0 -3 -4 -8 -10 -11 -5 -3 -10 -1 -10 4 0 6 5 11 10 11 6 0 10
-2 10 -4z m46 -101 c2 -36 2 -37 -5 -10 -4 17 -12 29 -17 28 -6 -1 -11 5 -11
13 0 8 7 13 16 12 10 -2 16 -16 17 -43z m-3 -48 c4 3 7 1 7 -5 0 -20 -19 -13
-30 11 -10 20 -10 20 3 5 8 -10 17 -15 20 -11z"/>
<path d="M9920 9880 c-8 -5 -12 -12 -9 -15 4 -3 12 1 19 10 14 17 11 19 -10 5z"/>
<path d="M1860 9861 c0 -11 4 -22 9 -25 4 -3 6 6 3 19 -5 30 -12 33 -12 6z"/>
<path d="M9883 9853 c9 -2 14 -9 11 -15 -4 -7 -2 -8 5 -4 15 10 4 26 -17 25
-15 -1 -15 -2 1 -6z"/>
<path d="M1847 9792 c3 -11 12 -23 21 -27 9 -3 13 -3 9 1 -4 4 -1 14 6 22 10
13 9 15 -4 10 -9 -4 -21 -2 -27 4 -8 8 -9 5 -5 -10z"/>
<path d="M1890 9764 c0 -8 5 -12 10 -9 6 3 10 10 10 16 0 5 -4 9 -10 9 -5 0
-10 -7 -10 -16z"/>
<path d="M10257 9726 c-3 -8 -2 -18 3 -21 13 -8 20 9 11 24 -6 10 -10 9 -14
-3z"/>
<path d="M1859 9692 c-11 -14 -11 -15 0 -5 7 6 20 9 27 6 8 -3 14 -3 14 0 0
14 -30 14 -41 -1z"/>
<path d="M10150 9574 c0 -17 17 -36 24 -26 3 5 -1 15 -9 22 -8 7 -15 9 -15 4z"/>
<path d="M10196 9565 c-3 -9 0 -15 9 -15 9 0 12 6 9 15 -4 8 -7 15 -9 15 -2 0
-5 -7 -9 -15z"/>
<path d="M10058 9493 c12 -2 30 -2 40 0 9 3 -1 5 -23 4 -22 0 -30 -2 -17 -4z"/>
<path d="M2462 934 c2 -21 7 -25 25 -21 12 2 20 0 17 -4 -3 -5 0 -9 5 -9 20 0
11 28 -14 44 -32 21 -35 20 -33 -10z"/>
<path d="M2460 881 c-9 -17 -8 -19 5 -15 17 7 20 -9 5 -37 -8 -13 -7 -19 0
-19 6 0 9 -4 5 -9 -3 -5 -2 -12 3 -14 4 -3 12 5 18 18 10 20 9 22 -5 17 -13
-5 -14 -3 -4 10 7 8 11 18 8 22 -3 3 1 2 7 -4 16 -13 28 -13 28 1 0 5 -4 7
-10 4 -6 -3 -10 4 -11 17 0 13 -3 17 -6 11 -2 -7 -9 -13 -14 -13 -6 0 -8 4 -4
9 3 5 1 12 -4 16 -6 3 -15 -3 -21 -14z"/>
<path d="M2500 769 c0 -5 -5 -7 -12 -3 -7 4 -8 3 -4 -4 10 -16 23 -15 30 3 3
8 1 15 -4 15 -6 0 -10 -5 -10 -11z"/>
<path d="M2452 763 c-6 -2 -10 -9 -6 -14 8 -14 21 -11 21 6 0 8 -1 15 -1 14
-1 0 -7 -3 -14 -6z"/>
<path d="M9383 738 c2 -7 1 -20 -4 -29 -5 -11 -4 -21 4 -27 10 -8 13 -7 14 6
1 9 2 22 3 27 4 20 0 35 -11 35 -6 0 -9 -6 -6 -12z"/>
<path d="M9431 741 c-15 -10 -8 -61 9 -61 13 0 13 27 0 35 -8 5 -7 11 1 21 13
16 10 18 -10 5z"/>
<path d="M9450 665 c-7 -9 -8 -15 -2 -15 5 0 12 7 16 15 3 8 4 15 2 15 -2 0
-9 -7 -16 -15z"/>
<path d="M9382 647 c-8 -10 -7 -13 7 -14 10 -1 18 5 18 13 0 17 -11 18 -25 1z"/>
<path d="M9456 627 c3 -10 9 -15 12 -12 3 3 0 11 -7 18 -10 9 -11 8 -5 -6z"/>
<path d="M9361 594 c0 -11 3 -14 6 -6 3 7 2 16 -1 19 -3 4 -6 -2 -5 -13z"/>
<path d="M9462 580 c0 -14 2 -19 5 -12 2 6 2 18 0 25 -3 6 -5 1 -5 -13z"/>
<path d="M5100 481 c-74 -23 -127 -65 -331 -267 l-216 -214 609 0 609 0 -6 23
c-18 63 -73 155 -128 214 -122 130 -237 200 -386 233 -97 21 -112 22 -151 11z"/>
<path d="M6670 480 c-174 -29 -357 -154 -443 -300 -22 -38 -57 -144 -57 -172
0 -4 261 -8 581 -8 l580 0 -168 168 c-199 199 -259 251 -337 291 -60 32 -78
34 -156 21z"/>
<path d="M10638 80 c-28 -59 -36 -68 -53 -63 -27 9 -77 5 -89 -7 -7 -7 56 -10
176 -10 l186 0 -67 64 c-36 36 -78 69 -93 75 -25 10 -27 8 -60 -59z"/>
<path d="M10547 121 c5 -19 -20 -73 -31 -66 -3 3 -3 1 1 -4 12 -14 72 -21 79
-9 11 18 13 58 3 58 -5 0 -9 8 -9 18 0 11 -8 17 -24 18 -17 1 -22 -3 -19 -15z"/>
<path d="M10600 120 c0 -5 5 -10 11 -10 5 0 7 5 4 10 -3 6 -8 10 -11 10 -2 0
-4 -4 -4 -10z"/>
</g>
</svg>
